PathFileType	4	(X/Y/Z)	C:/Users/beibeiliu/ov580/test_trc/capture2\sequence.22_training_dense_right.trc
DataRate	CameraRate	NumFrames	NumMarkers	Units	OrigDataRate	OrigDataStartFrame	OrigNumFrames
120	120	10	19	mm	120	286	380
Frame#	Time	ThumbCMC			ThumbMCP			ThumbIP			ThumbTip			IndexMCP			IndexPIP			IndexTip			MiddleMCP			MiddlePIP			MiddleTip			RingMCP			RingPIP			RingTip			PinkyMCP			PinkyPIP			PinkyTip			BackHand1			BackHand2			BackHand3	
		X0	Y0	Z0	X1	Y1	Z1	X2	Y2	Z2	X3	Y3	Z3	X4	Y4	Z4	X5	Y5	Z5	X6	Y6	Z6	X7	Y7	Z7	X8	Y8	Z8	X9	Y9	Z9	X10	Y10	Z10	X11	Y11	Z11	X12	Y12	Z12	X13	Y13	Z13	X14	Y14	Z14	X15	Y15	Z15	X16	Y16	Z16	X17	Y17	Z17	X18	Y18	Z18	
285	2.375	70.6775	19.9453	29.4811	71.596	7.89021	3.58274	64.2542	-0.638661	-19.2487	59.9658	0.488582	-43.7119	59.3273	25.9649	-38.8614	86.5921	13.7169	-48.987	97.595	8.94012	-17.9584	77.1323	39.2929	-40.5084	104.12	20.091	-34.3694	98.9206	25.6138	0.430833	95.4576	52.3731	-39.6416	114.889	33.8274	-31.0144	106.419	37.6025	4.71375	93.7825	80.0939	-36.908	98.0252	75.7426	-57.3164	99.8947	80.2817	-76.3319	69.7939	76.3526	10.1619	75.9191	76.7061	37.127	56.4326	50.682	28.6859	
286	2.38333	78.9928	18.9442	26.5606	79.4928	4.69038	0.730942	73.3422	-3.4794	-23.1003	69.5718	-3.28382	-47.0802	70.057	27.167	-41.8415	94.1332	12.3996	-52.4174	107.868	8.68659	-21.1328	90.0084	39.4073	-45.7184	115.129	23.8201	-38.8488	104.275	23.3355	-1.39894	103.075	50.943	-42.5789	123.077	31.7112	-29.2272	113.58	33.7731	0.0759642	101.989	79.9828	-35.5266	107.352	75.534	-56.0353	109.833	78.7104	-81.5338	79.2513	76.733	7.68296	82.9974	75.7204	37.864	60.9374	48.3304	24.2687	
287	2.39167	86.5974	14.6232	27.917	90.1779	2.97591	-0.102882	83.4291	-4.83883	-24.1174	81.0566	-2.18301	-48.4746	79.2177	25.0009	-43.8541	104.622	7.627	-53.5447	117.943	9.53914	-19.2154	95.4349	37.163	-44.9072	123.997	21.1773	-41.2425	112.368	22.5873	-2.35915	113.683	53.3551	-42.2832	133.376	30.8373	-29.3043	120.556	36.6381	3.56918	112.493	78.5447	-39.7424	119.533	74.5599	-61.5511	119.896	74.6952	-78.5057	87.2076	77.9952	5.01213	91.1696	75.7397	32.3572	71.0266	45.2096	21.54	
288	2.4	96.2948	12.1807	27.0206	97.9526	-0.139195	-3.30858	94.2274	-5.05364	-29.6308	91.5816	-6.4115	-53.6829	92.5867	24.1231	-46.8348	118.28	10.104	-54.9811	128.226	10.308	-19.6322	110.41	35.9713	-49.3986	136.546	21.4464	-39.1814	125.799	21.1266	-5.0989	120.646	50.1945	-42.2674	144.399	31.865	-31.6414	128.524	32.4362	-0.221188	123.117	76.8278	-42.3045	131.005	75.9007	-57.8249	133.312	72.0806	-85.2703	95.6796	74.5007	4.90189	95.6109	71.8242	30.895	82.7035	47.7564	19.7811	
289	2.40833	104.217	13.0087	23.6395	108.26	-1.50266	-2.14581	105.232	-9.94293	-27.8805	105.645	-5.11057	-51.2111	101.455	19.6827	-47.9661	130.197	9.18659	-54.5654	138.754	6.53947	-23.3033	118.3	33.1435	-48.762	146.864	20.9961	-42.1543	137.56	23.4173	-5.04562	134.384	47.0489	-45.0393	156.127	30.7305	-30.3005	141.262	34.5691	-0.0966899	133.321	76.1217	-44.9052	140.247	70.0679	-61.9725	146.215	72.6783	-81.7497	107.934	74.9627	2.00559	107.353	74.7281	31.4102	87.7202	45.7641	15.8343	
290	2.41667	111.061	10.914	22.7248	116.689	-1.88901	-5.74963	113.855	-7.13115	-32.3575	112.827	-7.50155	-56.3005	112.932	15.3167	-51.6416	142.738	5.87144	-52.9075	148.357	8.1848	-22.9888	131.433	31.6627	-50.92	156.755	16.463	-39.3243	143.944	21.3432	-4.19078	141.354	45.6307	-44.9301	164.102	29.4387	-29.8177	147.969	30.7408	-0.837594	142.556	76.4668	-40.9753	149.81	67.4796	-62.9178	158.448	73.4832	-85.8152	114.908	73.7586	-1.90323	113.611	73.3394	27.9568	95.8618	44.4298	12.3741	
291	2.425	118.351	12.8029	19.7385	121.873	-4.49529	-5.49871	121.373	-6.84407	-30.0062	119.975	-10.9612	-56.2147	121.489	15.9262	-50.8745	148.555	4.44292	-53.3735	151.639	5.54815	-18.8309	138.168	33.4999	-49.3356	163.949	15.027	-39.5135	152.355	17.7875	-4.9638	152.774	42.6545	-46.5639	171.793	27.7828	-32.6355	154.38	28.2197	-1.42833	151.365	73.8012	-41.8129	160.678	69.5117	-62.8255	167.455	73.4061	-85.145	120.122	71.4038	-3.49406	120.069	69.1221	24.7136	102.873	45.4018	14.6827	
292	2.43333	121.472	11.3825	21.0852	125.364	-5.42378	-2.05573	123.739	-10.7358	-33.5646	123.771	-12.9722	-56.1833	125.994	16.2569	-50.0458	153.694	1.58606	-53.0084	155.313	4.12005	-19.091	145.739	30.1353	-50.7372	168.97	13.4614	-40.8619	156.576	20.9734	-3.66757	159.953	44.4284	-46.7893	176.498	24.0448	-28.3201	164.19	29.0658	-1.53723	155.962	71.4127	-40.7051	167.837	68.5619	-63.81	172.791	70.7592	-85.3749	127.223	72.2255	-7.31668	126.072	72.9871	27.5893	107.936	44.9789	11.2231	
293	2.44167	121.971	10.5719	17.6169	128.791	-0.823561	-4.11459	127.471	-8.4985	-29.4706	125.789	-14.7977	-54.1937	129.96	17.9632	-50.8484	157.311	0.680308	-49.6341	156.497	3.98359	-19.6605	148.495	32.3616	-50.6413	171.165	9.82704	-36.8895	157.852	17.2079	-4.6783	161.822	42.4469	-45.5178	180.534	23.5929	-28.5756	163.508	27.2726	-1.62582	160.769	68.574	-44.0322	170.885	66.3037	-62.0711	177.003	69.715	-81.8789	131.992	68.6981	-2.94634	130.281	72.5679	29.2746	111.086	42.963	13.2418	
294	2.45	123.44	12.2915	20.009	126.561	-2.76245	-4.5981	126.264	-8.16516	-28.3219	125.884	-9.57158	-55.6164	131.085	21.2116	-51.1662	156.013	0.41748	-50.0483	153.311	4.31091	-19.5429	149.398	34.0492	-51.2403	171.668	13.4406	-37.1884	156.31	20.5514	-5.52059	159.524	44.2635	-45.6252	180.328	22.6588	-30.5305	162.838	25.6903	-2.928	164.999	73.6707	-40.0832	174.192	71.4053	-60.7962	175.26	71.2582	-82.9563	133.988	72.4191	-3.73512	132.652	69.5456	30.7478	112.892	48.0868	13.5192	
